PathFileType	4	(X/Y/Z)	TVC_20_Cal_03_0_static_RCNL2025.trc
DataRate	CameraRate	NumFrames	NumMarkers	Units	OrigDataRate	OrigDataStartFrame	OrigNumFrames
100	100	12	27	mm	100	34	133
Frame#	Time	R_Shoulder			L_Shoulder			C7			J_Notch			R_Elbow			L_Elbow			R_Wrist			L_Wrist			R_Asis			L_Asis			R_Psis			L_Psis			Sacral			Thoracic			Sternum			R_Thigh_Lateral			R_Knee_Lateral			R_Shank_Lateral			R_Ankle_Lateral			R_Heel			R_Toe			L_Thigh_Lateral			L_Knee_Lateral			L_Shank_Lateral			L_Ankle_Lateral			L_Heel			L_Toe		
		X1	Y1	Z1	X2	Y2	Z2	X3	Y3	Z3	X4	Y4	Z4	X5	Y5	Z5	X6	Y6	Z6	X7	Y7	Z7	X8	Y8	Z8	X9	Y9	Z9	X10	Y10	Z10	X11	Y11	Z11	X12	Y12	Z12	X13	Y13	Z13	X14	Y14	Z14	X15	Y15	Z15	X16	Y16	Z16	X17	Y17	Z17	X18	Y18	Z18	X19	Y19	Z19	X20	Y20	Z20	X21	Y21	Z21	X22	Y22	Z22	X23	Y23	Z23	X24	Y24	Z24	X25	Y25	Z25	X26	Y26	Z26	X27	Y27	Z27
34	0.33000000	-225.976654	1427.054688	-40.415028	-267.874756	1432.559448	-387.670380	-273.135986	1469.844116	-195.913773	-149.662628	1343.632324	-213.443329	-243.801941	1154.212280	124.058647	-277.903625	1130.892700	-511.894318	-134.714382	923.629456	182.462845	-138.591640	915.378387	-561.073425	-193.006027	1010.446594	-60.406693	-176.345215	1018.944519	-340.854645	-339.687073	1013.803345	-162.488480	-347.674774	1007.276123	-250.958984	-343.680923	1010.539734	-206.723732	-374.891357	1238.347900	-209.027512	-134.579620	1199.721680	-217.564133	-241.335419	679.783447	3.127533	-262.484100	470.933563	-59.503174	-309.494843	312.983612	-16.160889	-316.260132	76.298119	-88.946754	-355.479004	52.396584	-143.466125	-167.707626	36.685787	-81.497337	-230.481918	653.942017	-412.462036	-241.434753	462.961487	-356.513702	-256.862000	316.628937	-398.016602	-279.370514	73.781929	-318.711731	-326.006683	62.553085	-276.935974	-138.154984	38.102886	-294.572693
35	0.34000000	-225.870834	1426.935791	-40.470928	-267.911926	1432.576538	-387.696625	-273.269684	1469.808960	-195.933319	-149.637543	1343.654419	-213.495499	-243.798004	1154.183716	124.071953	-277.884796	1130.932373	-511.823578	-134.660107	923.610779	182.387543	-138.548912	915.365723	-561.055511	-193.024796	1010.487488	-60.339046	-176.320374	1018.948303	-340.866913	-339.695374	1013.823975	-162.477066	-347.640503	1007.118835	-251.018555	-343.667938	1010.471405	-206.747810	-374.996246	1238.303223	-209.062927	-134.498886	1199.739258	-217.656052	-241.315109	679.715515	3.084627	-262.494080	470.921021	-59.479576	-309.484192	312.968292	-16.163565	-316.160400	76.295235	-88.929565	-355.432312	52.329079	-143.486542	-167.608322	36.691547	-81.663551	-230.390488	653.915222	-412.375153	-241.432358	462.960510	-356.513214	-256.868561	316.664856	-397.988739	-280.043732	74.335091	-318.894562	-325.991119	62.564487	-276.884827	-138.141922	38.037579	-294.500641
36	0.35000000	-225.822556	1426.936401	-40.474216	-267.924133	1432.578491	-387.691650	-273.282806	1469.810059	-195.930740	-149.744507	1343.653564	-213.563522	-243.802582	1154.202393	124.067940	-277.908875	1130.877808	-511.888336	-134.647472	923.639587	182.388870	-138.602802	915.423431	-561.097595	-193.141006	1010.513611	-60.376289	-176.337677	1018.949951	-340.859772	-339.676392	1013.759033	-162.515228	-347.640656	1007.254761	-251.037445	-343.658524	1010.506897	-206.776337	-375.011261	1238.289551	-209.081116	-134.637360	1199.792847	-217.657486	-241.218277	679.720520	3.044154	-262.464233	470.935547	-59.473164	-309.414551	312.979767	-16.208529	-316.269775	76.299004	-88.912819	-355.403015	52.301327	-143.495850	-167.568481	36.670715	-81.733009	-230.305328	653.951843	-412.399139	-241.443100	462.952271	-356.569977	-256.948853	316.664642	-398.104614	-280.071808	74.174942	-319.012146	-325.977600	62.555466	-276.877289	-138.107208	38.063160	-294.606750
37	0.36000000	-226.279388	1427.197021	-40.442516	-267.919525	1432.637695	-387.698822	-273.277252	1469.810181	-195.930771	-149.836578	1343.640991	-213.442337	-243.795120	1154.183472	124.075165	-277.901672	1131.004150	-511.892395	-134.627705	923.637054	182.368340	-138.519516	915.427551	-561.135498	-193.170029	1010.553894	-60.395744	-176.322769	1018.936157	-340.887085	-339.690460	1013.797485	-162.498322	-347.643951	1007.277588	-250.974533	-343.667206	1010.537537	-206.736427	-375.066193	1238.293091	-209.142639	-134.686249	1199.795288	-217.659210	-241.354187	679.776367	3.023413	-262.447632	470.931122	-59.492458	-309.438080	313.001526	-16.183615	-316.300568	76.334908	-88.912651	-355.375824	52.510155	-143.487228	-167.598480	36.586914	-81.736992	-230.298477	654.035034	-412.428131	-241.428787	462.958191	-356.519745	-256.886780	316.558228	-398.036377	-280.093597	74.331352	-318.945709	-325.976044	62.553673	-276.879242	-138.046082	38.032829	-294.625732
38	0.37000000	-225.947815	1426.991821	-40.441200	-267.933960	1432.614258	-387.685760	-273.353638	1469.845459	-195.888596	-149.823914	1343.741089	-213.433975	-243.793015	1154.182007	124.078377	-277.914185	1131.012085	-511.873077	-134.644798	923.651794	182.405922	-138.528534	915.447235	-561.181335	-193.103317	1010.482971	-60.472183	-176.317612	1018.946655	-340.892151	-339.677368	1013.783691	-162.510315	-347.650848	1007.305237	-251.022003	-343.664108	1010.544464	-206.766159	-375.100433	1238.292358	-209.085632	-134.468399	1199.920288	-217.685532	-241.400803	679.720642	3.023732	-262.516998	470.914490	-59.472382	-309.441284	313.003784	-16.169943	-316.196167	76.286583	-88.878731	-355.495880	52.368607	-143.441437	-167.493591	36.613880	-81.737511	-230.431244	653.984131	-412.410889	-241.416565	462.954285	-356.546661	-257.193878	316.821564	-398.214539	-280.114990	74.415276	-318.930634	-325.976715	62.554153	-276.879761	-138.060776	37.983395	-294.581177
39	0.38000000	-225.971558	1427.033081	-40.395618	-268.028656	1432.586060	-387.688782	-273.505219	1469.770386	-195.904419	-149.791214	1343.791016	-213.488754	-243.802872	1154.216064	124.076454	-277.930603	1131.003174	-511.941467	-134.618237	923.634460	182.391205	-138.532768	915.491058	-561.170929	-193.056671	1010.505310	-60.459484	-176.304153	1018.961731	-340.887665	-339.673584	1013.793762	-162.498810	-347.654633	1007.176636	-250.998993	-343.664108	1010.485199	-206.748901	-375.055969	1238.193604	-209.146317	-134.500488	1199.961670	-217.761841	-241.451187	679.740356	3.080791	-262.520935	470.890350	-59.473694	-309.470917	312.957642	-16.189587	-316.160339	76.298363	-88.907181	-355.416840	52.364307	-143.487473	-167.524002	36.621445	-81.786255	-230.439362	654.025452	-412.447174	-241.447479	462.950378	-356.568756	-257.264709	316.873871	-398.269867	-280.007111	74.147095	-318.980072	-325.996002	62.504116	-276.852661	-138.069656	37.986904	-294.576447
40	0.39000000	-225.892258	1426.966309	-40.435204	-268.060272	1432.612183	-387.737762	-273.536530	1469.804932	-195.879761	-149.779877	1343.789917	-213.481979	-243.870789	1154.132812	124.096138	-277.939850	1131.039551	-511.941498	-134.691185	923.623993	182.423607	-138.615150	915.530640	-561.241455	-193.122055	1010.540955	-60.424530	-176.313965	1018.959290	-340.897980	-339.747559	1013.819519	-162.482529	-347.654816	1007.239990	-251.010727	-343.701187	1010.529755	-206.746628	-375.114990	1238.188721	-209.118912	-134.467758	1200.011719	-217.632141	-241.508911	679.781738	3.117456	-262.534821	470.898041	-59.470562	-309.449585	312.939148	-16.167274	-316.332611	76.324898	-88.739006	-355.389984	52.466656	-143.436188	-167.613968	36.631054	-81.702682	-230.449448	653.966064	-412.355438	-241.437485	462.963074	-356.567566	-257.264496	316.935577	-398.242004	-280.223969	74.359566	-318.803955	-326.004608	62.496082	-276.816986	-138.068085	38.000805	-294.560852
41	0.40000000	-225.912735	1427.011719	-40.390404	-268.067505	1432.610962	-387.721008	-273.595428	1469.815918	-195.939529	-149.765366	1343.832764	-213.506638	-243.808243	1154.204468	124.074097	-277.974945	1131.038818	-511.975281	-134.656845	923.651001	182.449646	-138.604988	915.554901	-561.297943	-193.073456	1010.509705	-60.453732	-176.429565	1018.974426	-340.923676	-339.814117	1013.870667	-162.551834	-347.654572	1007.171509	-250.999451	-343.734344	1010.521088	-206.775642	-375.130005	1238.193970	-209.132217	-134.428299	1200.093506	-217.666504	-241.531342	679.808594	3.098435	-262.567780	470.933960	-59.464779	-309.453094	312.958923	-16.190933	-316.367218	76.296753	-88.735016	-355.404694	52.403103	-143.485550	-167.657791	36.608627	-81.659683	-230.469559	653.962952	-412.446808	-241.434708	462.970612	-356.546173	-256.893463	316.685272	-398.003357	-280.071716	74.236992	-318.985077	-325.997009	62.507256	-276.847046	-138.101486	38.008533	-294.628510
42	0.41000000	-226.080170	1427.052490	-40.403221	-268.103760	1432.712158	-387.738068	-273.672699	1469.788452	-195.903595	-149.732651	1343.899414	-213.515121	-243.880096	1154.212036	124.128487	-277.991211	1131.074585	-511.950714	-134.745441	923.739990	182.575302	-138.614910	915.600616	-561.280975	-193.151917	1010.552185	-60.405540	-176.475235	1019.038513	-340.898651	-339.843658	1013.848083	-162.522964	-347.641754	1007.217102	-250.995926	-343.742706	1010.532593	-206.759445	-375.133362	1238.155884	-209.106644	-134.332382	1200.167358	-217.715363	-241.418991	679.808472	3.046497	-262.591675	470.981537	-59.508011	-309.458160	312.970306	-16.168718	-316.200500	76.299461	-88.863655	-355.470612	52.402664	-143.462631	-167.523376	36.642551	-81.713417	-230.505798	653.954163	-412.415710	-241.456863	462.981201	-356.562317	-257.204529	316.861969	-398.229370	-280.125000	74.434441	-318.752197	-325.990082	62.559475	-276.857178	-138.077682	38.009129	-294.586761
43	0.42000000	-225.982269	1427.076782	-40.357483	-268.197083	1432.738525	-387.659882	-273.680878	1469.821045	-195.875916	-149.737686	1343.910278	-213.506775	-243.948227	1154.265869	124.181610	-278.015411	1131.150513	-512.010071	-134.777679	923.749939	182.615334	-138.651096	915.696594	-561.348999	-193.188583	1010.533997	-60.485661	-176.430756	1019.020569	-340.930267	-339.843048	1013.845276	-162.514572	-347.716644	1007.310730	-251.144394	-343.779846	1010.578003	-206.829483	-375.142792	1238.200073	-209.087280	-134.371094	1200.190308	-217.695969	-241.431107	679.823914	3.071582	-262.613220	470.962494	-59.485115	-309.492889	312.963104	-16.183144	-316.272308	76.324318	-88.878342	-355.432617	52.336845	-143.477081	-167.477325	36.655701	-81.747955	-230.488480	653.965332	-412.418976	-241.455582	462.951935	-356.558472	-257.029114	316.633148	-398.121399	-280.055573	74.205551	-318.986969	-325.991547	62.564255	-276.856659	-138.081360	38.021358	-294.580475
44	0.43000000	-226.005203	1427.136597	-40.418201	-268.194214	1432.758789	-387.620728	-273.773712	1469.833984	-195.827011	-149.692093	1344.034424	-213.533142	-243.972290	1154.244751	124.178314	-278.050690	1131.158936	-512.054016	-134.666817	923.744812	182.539070	-138.664608	915.717499	-561.415802	-193.108627	1010.578186	-60.545174	-176.457062	1019.028137	-340.901062	-339.822540	1013.836060	-162.539841	-347.793549	1007.295044	-251.052139	-343.808044	1010.565552	-206.795990	-375.210876	1238.249023	-209.142746	-134.306824	1200.238892	-217.765701	-241.539139	679.848145	3.021991	-262.616730	470.938171	-59.513157	-309.535278	312.971222	-16.197556	-316.258911	76.314583	-88.946823	-355.495636	52.336708	-143.442230	-167.542633	36.668068	-81.757225	-230.504913	654.022583	-412.514008	-241.470047	462.928497	-356.553589	-256.968262	316.541504	-398.042755	-280.004181	74.166412	-319.061066	-325.990692	62.568371	-276.855743	-138.106430	38.052101	-294.549530
45	0.44000000	-226.032333	1427.124268	-40.410519	-268.213623	1432.780029	-387.626617	-273.827362	1469.835327	-195.909790	-149.679901	1344.065552	-213.547562	-243.931351	1154.295776	124.138969	-278.034332	1131.175415	-511.974701	-134.591858	923.830109	182.585289	-138.599693	915.766907	-561.474640	-193.271515	1010.615479	-60.521935	-176.473999	1019.021301	-340.917267	-339.884277	1013.828613	-162.603073	-347.754486	1007.342041	-251.120514	-343.819382	1010.585327	-206.861794	-375.233856	1238.167725	-209.148300	-134.246246	1200.345337	-217.808472	-241.457703	679.827820	3.026452	-262.626862	470.963837	-59.517246	-309.551208	312.977539	-16.226171	-316.262054	76.294525	-88.948280	-355.502319	52.344452	-143.447571	-167.686279	36.601505	-81.475708	-230.500000	653.935547	-412.490265	-241.448318	462.932373	-356.549347	-257.205872	316.807281	-398.209503	-280.037903	74.218597	-319.029541	-326.000275	62.563072	-276.866730	-138.098938	38.047951	-294.631104
